<svg xmlns="http://www.w3.org/2000/svg" viewBox="0 0 1200 630" fill="none">
  <rect width="1200" height="630" fill="#f5efe6"/>
  <rect x="58" y="58" width="1084" height="514" rx="32" fill="#fbf7f1" stroke="#d8b09b"/>
  <circle cx="1020" cy="138" r="82" fill="#a35a3d" fill-opacity=".12"/>
  <circle cx="930" cy="476" r="118" fill="#32463c" fill-opacity=".08"/>
  <path d="M92 534V120h358c118 0 194 60 194 168 0 78-39 128-108 150l146 96H552l-121-84H220v84H92Zm128-186h213c53 0 83-24 83-62 0-40-30-64-83-64H220v126Z" fill="#1f1a17"/>
  <text x="720" y="248" fill="#1f1a17" font-family="Georgia, serif" font-size="56" font-weight="700">Atrayee Banerjee</text>
  <text x="720" y="312" fill="#64594d" font-family="Arial, sans-serif" font-size="28">Content Strategist | SEO Writer | Editor</text>
  <text x="720" y="378" fill="#64594d" font-family="Arial, sans-serif" font-size="24">Editorial, search-minded, and conversion-focused writing for modern brands.</text>
</svg>
